<svg xmlns="http://www.w3.org/2000/svg" viewBox="0 0 500 500"><g id="freepik--background-simple--inject-71"><path d="M327.83,61.77S248.49,30.6,172.61,74.59,60.28,209.09,28.83,281.53,18.63,429.14,78.41,464.81s98.47-13.38,181-13.52S364.46,464,431.69,417.53,508.24,257.08,451.91,171,327.83,61.77,327.83,61.77Z" style="fill:#0035AD"></path><path d="M327.83,61.77S248.49,30.6,172.61,74.59,60.28,209.09,28.83,281.53,18.63,429.14,78.41,464.81s98.47-13.38,181-13.52S364.46,464,431.69,417.53,508.24,257.08,451.91,171,327.83,61.77,327.83,61.77Z" style="fill:#fff;opacity:0.7000000000000001"></path></g><g id="freepik--Character--inject-71"><path d="M331.5,372.84S288,382.35,258.37,386s-83-13.6-83-13.6l-5.87,96.4c23.58-7.2,49.78-16.24,83.35-17.36l.21-9.31,3.73-.93v10.15c.86,0,1.72,0,2.59,0,34.52-.06,58.54,2.16,79.73,1.35Z" style="fill:#263238;stroke:#263238;stroke-linecap:round;stroke-linejoin:round"></path><line x1="248.88" y1="422.38" x2="249.04" y2="428.12" style="fill:none;stroke:#828282;stroke-linecap:round;stroke-linejoin:round"></line><line x1="248.11" y1="394.56" x2="248.71" y2="416.19" style="fill:none;stroke:#828282;stroke-linecap:round;stroke-linejoin:round"></line><path d="M261.78,395.5v24.85" style="fill:none;stroke:#828282;stroke-linecap:round;stroke-linejoin:round"></path><line x1="276.23" y1="436.36" x2="281.04" y2="435.27" style="fill:none;stroke:#828282;stroke-linecap:round;stroke-linejoin:round"></line><line x1="244.07" y1="443.65" x2="270.12" y2="437.75" style="fill:none;stroke:#828282;stroke-linecap:round;stroke-linejoin:round"></line><path d="M205.55,389.28s-4.35,11.19-13.36,18A108.51,108.51,0,0,1,177,417.25" style="fill:none;stroke:#828282;stroke-linecap:round;stroke-linejoin:round"></path><line x1="174.34" y1="453.81" x2="173.85" y2="460.43" style="fill:none;stroke:#828282;stroke-linecap:round;stroke-linejoin:round"></line><line x1="178.51" y1="397.05" x2="174.96" y2="445.36" style="fill:none;stroke:#828282;stroke-linecap:round;stroke-linejoin:round"></line><path d="M324.34,415.4a27.68,27.68,0,0,0,4.86.6" style="fill:none;stroke:#828282;stroke-linecap:round;stroke-linejoin:round"></path><path d="M296,395.19s10.25,13.36,18.64,17.08c1.18.53,2.32,1,3.41,1.37" style="fill:none;stroke:#828282;stroke-linecap:round;stroke-linejoin:round"></path><line x1="329.82" y1="395.81" x2="334.96" y2="450.92" style="fill:none;stroke:#828282;stroke-linecap:round;stroke-linejoin:round"></line><path d="M221.33,175.94s13.13-9.84,30.47-9.84,24.38,7,28.13,17.81S296,382.38,296,382.38a138,138,0,0,1-40.48,8.27c-22,.94-43.6-5.15-43.6-5.15s.47-98,.94-133.61S221.33,175.94,221.33,175.94Z" style="fill:#e0e0e0;stroke:#263238;stroke-linecap:round;stroke-linejoin:round"></path><line x1="237.83" y1="337.71" x2="234.23" y2="343.06" style="fill:none;stroke:#263238;stroke-linecap:round;stroke-linejoin:round"></line><line x1="276.27" y1="280.55" x2="242.11" y2="331.34" style="fill:none;stroke:#263238;stroke-linecap:round;stroke-linejoin:round"></line><line x1="259.67" y1="318.17" x2="242.53" y2="341.95" style="fill:none;stroke:#263238;stroke-linecap:round;stroke-linejoin:round"></line><path d="M282.31,201.24c-1-9.32-1.78-15.6-2.38-17.33-3.75-10.78-10.78-17.81-28.13-17.81s-30.47,9.84-30.47,9.84-1.29,6.54-2.87,16.68c2.95,10.85,10.49,23.23,29.59,22.7C266.31,214.81,276.19,209,282.31,201.24Z" style="fill:#fff;stroke:#263238;stroke-linecap:round;stroke-linejoin:round"></path><path d="M272.67,169.71a128.66,128.66,0,0,1,6,30.67c1,16.33-1,195-.34,197.66s1,3.67,5.34,3.34,32.66-4,40.33-6.67,11.33-2.67,11.67-4.33,1.66-5.34,1.66-6.34,3-1.33,4.34-8.66S338,319,338,315s-.67-11.66-.67-11.66l28.67-7s-.67-12-3-26.67S352,213.38,351.33,208s-1.33-11-5.66-15-39.34-16.33-48-19.66S277,165,274,165,272.67,169.71,272.67,169.71Z" style="fill:#5c5c5c;stroke:#263238;stroke-linecap:round;stroke-linejoin:round"></path><path d="M284.2,392.14s26.29,1.46,50.38-8" style="fill:none;stroke:#263238;stroke-linecap:round;stroke-linejoin:round"></path><path d="M226,167.71S223,187,223.67,202s-1.34,180.34-.67,186.67.67,11,.67,11-2,3-20.67-2-29-7.67-31.33-10-5.34-11.33-5.34-11.33-3-.67-2-12.67,3.34-48.33,3.34-48.33S143,322.38,134,319s-10.33-7.33-10-11.33,10.67-31.33,13.67-42.33,5.33-22,6.66-28,6.34-35.67,8.67-38.67S207.67,176,209.33,175,221.33,167.38,226,167.71Z" style="fill:#5c5c5c;stroke:#263238;stroke-linecap:round;stroke-linejoin:round"></path><path d="M278.67,163.71s15,7,21.66,22,11.34,25.67,11.34,25.67l-31.67,3s-2.67-22.34-3.67-31-3.66-12-3.66-15.67S276,164,278.67,163.71Z" style="fill:#5c5c5c;stroke:#263238;stroke-linecap:round;stroke-linejoin:round"></path><path d="M223.67,163.71c-.88.49-10.67,5-14.34,11.33s-10.66,29.67-12,33.67-3.33,5.67-2,5.67,13.34-1,18.34-1S232,214.71,232,214.71L231.67,174S232.67,158.71,223.67,163.71Z" style="fill:#5c5c5c;stroke:#263238;stroke-linecap:round;stroke-linejoin:round"></path><path d="M309,368.38s-3.33-45-3.33-56.34-13.34-91-15-109-4.67-32.66-9.34-37.33-21.66-8.33-31.33-8.33-24.33-1-28.67,7.66c0,0-7.33,15.34-7.33,30.67s-13,152-13,152l1.29.11L202,358.35a1,1,0,0,0,1,1h0a1,1,0,0,0,1-1l.28-10.4,1,.08-.29,10.6a1,1,0,0,0,1,1h0a1,1,0,0,0,1-1l.28-10.48,1,.08L208,359a1,1,0,0,0,1,1h0a1,1,0,0,0,1-1l.28-10.55,1,.09L211,359.35a1,1,0,0,0,1,1h0a1,1,0,0,0,1-1l.29-10.62,1,.09L214,359.68a1,1,0,0,0,1,1h0a1,1,0,0,0,1-1l.29-10.7,1,.09L217,360a1,1,0,0,0,1,1h0a1,1,0,0,0,1-1l.29-10.77,1,.09-.3,11a1,1,0,0,0,1,1h0a1,1,0,0,0,1-1l.29-10.84,1,.09-.3,11a1,1,0,0,0,1,1h0a1,1,0,0,0,1-1l.29-10.92,1,.09L226,361a1,1,0,0,0,1,1h0a1,1,0,0,0,1-1l.3-11,1,.09-.3,11.18a1,1,0,0,0,1,1h0a1,1,0,0,0,1-1l.3-11.06.37,0S229.33,248,231.33,232s.34-58,.34-58,25.66-2.66,33.66-1,7.34,14,8,19,0,139.67,0,143.67,2,36,2,36l1.35-.13L277,383.4a1,1,0,0,0,1,1h0a1,1,0,0,0,1-1l-.32-12,1-.1.32,11.79a1,1,0,0,0,1,1h0a1,1,0,0,0,1-1l-.32-11.94,1-.1.32,11.76a1,1,0,0,0,1,1h0a1,1,0,0,0,1-1l-.32-11.89,1-.1L286,382.4a1,1,0,0,0,1,1h0a1,1,0,0,0,1-1l-.32-11.86,1-.1.32,11.68a1,1,0,0,0,1,1h0a1,1,0,0,0,1-1l-.32-11.83,1-.1.31,11.65a1,1,0,0,0,1,1h0a1,1,0,0,0,1-1l-.32-11.79,1-.1L295,381.4a1,1,0,0,0,1,1h0a1,1,0,0,0,1-1l-.32-11.75,1-.1.31,11.57a1,1,0,0,0,1,1h0a1,1,0,0,0,1-1l-.32-11.72,1-.1.31,11.54a1,1,0,0,0,1,1h0a1,1,0,0,0,1-1L302.68,369l1-.1.31,11.5a1,1,0,0,0,1,1h0a1,1,0,0,0,1-1l-.32-11.64Z" style="fill:#0035AD;stroke:#263238;stroke-linecap:round;stroke-linejoin:round"></path><path d="M279.31,186.74a194.72,194.72,0,0,1,2.14,33.7" style="fill:none;stroke:#263238;stroke-linecap:round;stroke-linejoin:round"></path><path d="M276.78,175.19s.58,1.73,1.33,5.15" style="fill:none;stroke:#263238;stroke-linecap:round;stroke-linejoin:round"></path><path d="M284.23,236.3c0,1.4,0,2.8,0,4.2" style="fill:none;stroke:#263238;stroke-linecap:round;stroke-linejoin:round"></path><path d="M282.85,191.52s1,17.69,1.32,38.25" style="fill:none;stroke:#263238;stroke-linecap:round;stroke-linejoin:round"></path><path d="M223.85,223.25c0,1.49.11,2.9.21,4.19" style="fill:none;stroke:#263238;stroke-linecap:round;stroke-linejoin:round"></path><path d="M227.33,173.32s-3.21,25.35-3.51,43.85" style="fill:none;stroke:#263238;stroke-linecap:round;stroke-linejoin:round"></path><path d="M225,172.85s-4.2,22.87-5.14,37.33" style="fill:none;stroke:#263238;stroke-linecap:round;stroke-linejoin:round"></path><path d="M167,229.38s1,24,2.33,34.33S171,278.38,171,278.38l-2.33,32.33" style="fill:none;stroke:#263238;stroke-linecap:round;stroke-linejoin:round"></path><path d="M155.8,264.15a18.32,18.32,0,0,0-4.13-1.11" style="fill:none;stroke:#263238;stroke-linecap:round;stroke-linejoin:round"></path><path d="M170,277.71a34.72,34.72,0,0,0-9.45-10.93" style="fill:none;stroke:#263238;stroke-linecap:round;stroke-linejoin:round"></path><path d="M138,288.38S149.33,286,158.33,292" style="fill:none;stroke:#263238;stroke-linecap:round;stroke-linejoin:round"></path><path d="M159.93,233.4c2,7.06,4.63,14.79,7.74,19" style="fill:none;stroke:#263238;stroke-linecap:round;stroke-linejoin:round"></path><path d="M156.33,218s.48,2.62,1.36,6.46" style="fill:none;stroke:#263238;stroke-linecap:round;stroke-linejoin:round"></path><path d="M171,379.73s29.21,9.49,48.19,10.22" style="fill:none;stroke:#263238;stroke-linecap:round;stroke-linejoin:round"></path><path d="M181,327.38s1.33-14-.67-23.67-12-10.67-12-1S178.67,325.38,181,327.38Z" style="fill:#263238;stroke:#263238;stroke-linecap:round;stroke-linejoin:round"></path><rect x="186.33" y="233.71" width="31.67" height="64.67" rx="4" transform="translate(-35.91 31.59) rotate(-8.21)" style="fill:#263238;stroke:#263238;stroke-linecap:round;stroke-linejoin:round"></rect><path d="M189.9,240.53a1.67,1.67,0,1,1-1.89-1.41A1.67,1.67,0,0,1,189.9,240.53Z" style="fill:#fff"></path><path d="M168.33,292.71s4.67-4.67,6-8,2.34-19.67,3.34-22,7-5.67,7-5.67l1.66,12.34H190s7.67-7,9.67-9,14.33-7.34,18-8,5.33,1,5.33,3,0,4-2.33,5.33-7.67,4.67-10.67,6-7,6.67-7,6.67-1,2,.33,2S214.67,272,216.67,271a55.35,55.35,0,0,1,6.66-2.33s2-.67,2.67,3.33,0,4.34-1.67,5.34.34,2,1,4.66-2.33,5.67-2.33,5.67a11.92,11.92,0,0,1-1.67,5.67A23,23,0,0,1,214,300c-2.33,1.34-6.67,1.34-13,4.34a38.67,38.67,0,0,1-14.67,3.33c-1.33,0-14,5.67-14,5.67S167,302,168.33,292.71Z" style="fill:#fff;stroke:#263238;stroke-linecap:round;stroke-linejoin:round"></path><path d="M224.33,277.38s-6,4.66-9.66,5.66-11.34,3-11.34,3" style="fill:#fff;stroke:#263238;stroke-linecap:round;stroke-linejoin:round"></path><path d="M223,287.71s-5.67,3-9.33,4.67a24.53,24.53,0,0,1-8.34,2.33" style="fill:none;stroke:#263238;stroke-linecap:round;stroke-linejoin:round"></path><path d="M189.33,276s0,3.67,1,5-2.66,4.34-1.33,8.34,3,5.33,3,5.33-2,3.67,0,5.67l2,2" style="fill:none;stroke:#263238;stroke-linecap:round;stroke-linejoin:round"></path><line x1="186.33" y1="269.38" x2="182.33" y2="269.04" style="fill:none;stroke:#263238;stroke-linecap:round;stroke-linejoin:round"></line><path d="M170.67,290.71s.66,12.67,2.66,19.33S181,327.38,181,327.38s-13.33,5-24.67,8-20,8-28.33-3-6.33-23.34,0-31,16-7,27.33-9.34S170.67,290.71,170.67,290.71Z" style="fill:#5c5c5c;stroke:#263238;stroke-linecap:round;stroke-linejoin:round"></path><path d="M332.84,244.84l-3.67-8s-9.66-2.67-13-9.67a68.77,68.77,0,0,0-6.66-11.33l-6.67.66s-3,4-5,5.34-6.33,1.66-4.33-1.67,4-9,4.66-10,12.34-3.33,12.34-3.33l1.33-2.34-2.33-5.33-7,.67a20.56,20.56,0,0,0-2,5c-.34,2-4.67,2-4-.34s.33-9,.33-9,5-2.66,7.67-3.66,4.33-2.34,5.66-2.34,8,2.34,8,2.34L312.83,187l-5.73-.5s-2.26,3.69-3.93,4-1.66-2.66-1.66-2.66l2.33-6.34,10.67-1.33,4,1.67,8.33.66s5.67,7,7.33,11.34,7.67,20,9,24.33,7.34,20.33,7.34,20.33Z" style="fill:#fff;stroke:#263238;stroke-linecap:round;stroke-linejoin:round"></path><path d="M318.51,181.84a41.34,41.34,0,0,0,5,3c1,.33,8,10.66,8,10.66" style="fill:none;stroke:#263238;stroke-linecap:round;stroke-linejoin:round"></path><line x1="318.17" y1="191.84" x2="323.51" y2="199.5" style="fill:none;stroke:#263238;stroke-linecap:round;stroke-linejoin:round"></line><path d="M354.84,233.17l-38.33,14.67s8.66,51.66,10.33,59a26.52,26.52,0,0,0,14.67,17.66c7.66,3.67,19.33-.66,26.66-5s7.67-19,2.67-32-10.67-36.33-12-41.66S354.84,233.17,354.84,233.17Z" style="fill:#5c5c5c;stroke:#263238;stroke-linecap:round;stroke-linejoin:round"></path><path d="M213,116.15s-3.37-.56-4.5,3.38.57,12.36,1.69,14.89,3.37,5.9,4.78,6.74.84-14.89.84-19.11-1.69-5.9-1.69-5.9Z" style="fill:#fff;stroke:#263238;stroke-linecap:round;stroke-linejoin:round"></path><path d="M219.94,76.7s-5.25,10-6.66,18.66-.28,30.35,1.13,38.21,2,20.23,4.21,27.54,14,22.76,15.45,24.73,17.42,8.43,28.66-.28,18.83-18.83,21.92-27.26,3.65-25.85,4.21-35.4,3-33.79-1.68-41c-8.09-12.48-20.38-17.08-35.84-19.05S222.75,72.2,219.94,76.7Z" style="fill:#263238;stroke:#263238;stroke-linecap:round;stroke-linejoin:round"></path><path d="M289.15,117.84s2.8-4.22,4.77-1.41.56,13.49-.84,17.14-3.93,7.87-5.06,6.75S288.3,120.37,289.15,117.84Z" style="fill:#fff;stroke:#263238;stroke-linecap:round;stroke-linejoin:round"></path><path d="M217.21,143.13s-1.4-16.86-1.12-19.39,5.06-4.21,4.22-9.27-2.25-11,1.4-16.58,11-5.06,16.58-2.81,7.87,4.22,17.14,3.09,11.24-6.46,16.86-5.62,7,6.18,6.74,11.52-1.4,7.87,1.12,10.12,5.06,5,5.34,9.27-1.12,18-1.12,21.35-1.69,8.71-4.22,10.68-3.37,2.81-4.21,3.09-3.93-3.65-9.27-7.59A21.79,21.79,0,0,0,256,146.78l-17.7.28s-5.62,2.53-7.31,5.06-2.53,3.93-2.53,3.93l-1.68,3.09s-3.09,1.13-5.06-3.09A122.85,122.85,0,0,1,217.21,143.13Z" style="fill:#fff;stroke:#263238;stroke-linecap:round;stroke-linejoin:round"></path><path d="M238.57,143.41a5.08,5.08,0,0,0-.28,3.65c.56,2.25,6.46,3.93,9.27,4.78s6.46-3.09,8.43-5.06,0-4.21,0-4.21" style="fill:#fff;stroke:#263238;stroke-linecap:round;stroke-linejoin:round"></path><path d="M250.37,122.9s2.25,3.65,4.21,3.65,9.28-4.21,13.21-5.06,5.34.28,5.9-.84-2.25-3.09-6.18-3.09-11.24,4.21-12.64,4.49S251.49,123.46,250.37,122.9Z" style="fill:#263238;stroke:#263238;stroke-linecap:round;stroke-linejoin:round"></path><path d="M243.35,122.73s-2.06,3.34-3.86,3.34-8.5-3.86-12.1-4.63-4.89.26-5.4-.77,2-2.83,5.66-2.83,10.29,3.86,11.58,4.12S242.32,123.24,243.35,122.73Z" style="fill:#263238;stroke:#263238;stroke-linecap:round;stroke-linejoin:round"></path><path d="M235.48,131.47a1.73,1.73,0,1,1-1.69-2.11A1.93,1.93,0,0,1,235.48,131.47Z" style="fill:#263238"></path><path d="M263,131.47a1.73,1.73,0,1,1-1.68-2.11A1.92,1.92,0,0,1,263,131.47Z" style="fill:#263238"></path><path d="M238.85,132.17a12.06,12.06,0,0,1-4.5,7" style="fill:none;stroke:#263238;stroke-linecap:round;stroke-linejoin:round"></path><path d="M256.83,133s.28,3.09,5.06,5.06" style="fill:none;stroke:#263238;stroke-linecap:round;stroke-linejoin:round"></path><path d="M265.82,128.8a2.83,2.83,0,0,1,.29,4.21" style="fill:none;stroke:#263238;stroke-linecap:round;stroke-linejoin:round"></path><path d="M228.73,128.24a5.06,5.06,0,0,0,.57,5.62" style="fill:none;stroke:#263238;stroke-linecap:round;stroke-linejoin:round"></path><path d="M227.33,110.82s6.18-1.13,10.68.84a15.19,15.19,0,0,0,7.86,1.4" style="fill:none;stroke:#263238;stroke-linecap:round;stroke-linejoin:round"></path><path d="M265.54,108s-7.3-.85-13.2,1.4" style="fill:none;stroke:#263238;stroke-linecap:round;stroke-linejoin:round"></path><path d="M261.89,169.15s-.28-8.33-7-10-17.14.48-18.27,3.33-2,8.57-.56,11.43,7,4.53,14.33,4.29S261.89,174.15,261.89,169.15Z" style="fill:#404040;stroke:#263238;stroke-linecap:round;stroke-linejoin:round"></path><path d="M239.19,160.44c4.48.76,11.72,1.55,18.18-.21a8,8,0,0,0-2.5-1.08A28,28,0,0,0,239.19,160.44Z" style="fill:#fff;stroke:#263238;stroke-linecap:round;stroke-linejoin:round"></path><path d="M258.89,175.44a72.31,72.31,0,0,0-21.54,0c2.38,1.89,7.16,2.93,13,2.74A14,14,0,0,0,258.89,175.44Z" style="fill:#fff;stroke:#263238;stroke-linecap:round;stroke-linejoin:round"></path><line x1="189.12" y1="123.87" x2="198.16" y2="127.94" style="fill:none;stroke:#263238;stroke-linecap:round;stroke-linejoin:round"></line><line x1="192.28" y1="137.43" x2="198.16" y2="137.43" style="fill:none;stroke:#263238;stroke-linecap:round;stroke-linejoin:round"></line><line x1="200.87" y1="143.76" x2="192.73" y2="148.73" style="fill:none;stroke:#263238;stroke-linecap:round;stroke-linejoin:round"></line><line x1="311.14" y1="123.87" x2="302.1" y2="127.94" style="fill:none;stroke:#263238;stroke-linecap:round;stroke-linejoin:round"></line><line x1="307.98" y1="137.43" x2="302.1" y2="137.43" style="fill:none;stroke:#263238;stroke-linecap:round;stroke-linejoin:round"></line><line x1="299.39" y1="143.76" x2="307.52" y2="148.73" style="fill:none;stroke:#263238;stroke-linecap:round;stroke-linejoin:round"></line></g></svg>